<?xml version="1.0" encoding="UTF-8"?>
<svg width="20px" height="20px" viewBox="0 0 20 20" version="1.1" xmlns="http://www.w3.org/2000/svg" xmlns:xlink="http://www.w3.org/1999/xlink">
    <title>close-big@4x</title>
    <g id="反馈（15组）" stroke="none" stroke-width="1" fill="none" fill-rule="evenodd">
        <g id="Modal-|-对话框" transform="translate(-608.000000, -753.000000)">
            <g id="常规高度" transform="translate(160.000000, 716.000000)">
                <g id="close-big" transform="translate(448.000000, 37.000000)">
                    <path d="M0,0 L20,0 L20,20 L0,20 L0,0 Z" id="Rectangle"></path>
                    <path d="M15.116359,2.78918376 L10,7.90554339 L4.88364146,2.789185 C4.49806253,2.40360607 3.87291592,2.40360578 3.4873367,2.789185 L2.78918435,3.4873374 C2.40360581,3.87291595 2.40360486,4.49806256 2.78918376,4.88364146 L7.90554245,10 L2.789185,15.1163581 C2.40360645,15.5019366 2.40360578,16.1270833 2.789185,16.5126625 L3.4873374,17.2108156 C3.87291595,17.5963942 4.49806227,17.5963955 4.88364216,17.2108156 L10,12.094458 L15.1163581,17.2108156 C15.5019366,17.5963942 16.1270833,17.5963948 16.5126625,17.2108156 L17.2108156,16.5126634 C17.5963942,16.1270849 17.5963955,15.5019389 17.2108156,15.116359 L12.0944571,10 L17.2108156,4.88364146 C17.5963945,4.49806253 17.5963948,3.87291592 17.2108156,3.4873367 L16.5126634,2.78918435 C16.1270849,2.40360581 15.5019379,2.40360486 15.116359,2.78918376 Z" id="形状结合" fill-opacity="0.560000002" fill="#243045" fill-rule="nonzero"></path>
                </g>
            </g>
        </g>
    </g>
</svg>