<?xml version="1.0" encoding="UTF-8"?>
<svg width="24px" height="24px" viewBox="0 0 24 24" version="1.1" xmlns="http://www.w3.org/2000/svg" xmlns:xlink="http://www.w3.org/1999/xlink">
    <title>shouqi@4x</title>
    <g id="通用（21组）" stroke="none" stroke-width="1" fill="none" fill-rule="evenodd">
        <g id="图标" transform="translate(-195.000000, -1088.000000)">
            <g id="shouqi" transform="translate(195.000000, 1088.000000)">
                <rect id="矩形" x="0" y="0" width="24" height="24"></rect>
                <path d="M8.27592095,8.72439 C8.56623095,8.72439 8.80156095,8.95974 8.80156095,9.25005 L8.80145095,13.77139 C8.80145095,13.86699 8.77536095,13.96079 8.72598095,14.04269 C8.57611095,14.29139 8.25306095,14.37139 8.00443095,14.22159 L4.25435095,11.96099 C4.18109095,11.91679 4.11971095,11.85539 4.07555095,11.78219 C3.92567095,11.53359 4.00572095,11.21049 4.25434095,11.06059 L8.00453095,8.79986 C8.08644095,8.75048 8.18027095,8.72439 8.27592095,8.72439 Z M11.013901,10.62709 C10.769901,10.62709 10.572101,10.82489 10.572101,11.06889 L10.572101,11.95249 C10.572101,12.19649 10.769901,12.39429 11.013901,12.39429 L19.850101,12.39429 C20.094101,12.39429 20.291901,12.19649 20.291901,11.95249 L20.291901,11.06889 C20.291901,10.82489 20.094101,10.62709 19.850101,10.62709 L11.013901,10.62709 Z M4.82863095,17.25419 C4.58462095,17.25419 4.38682095,17.45199 4.38682095,17.69599 L4.38682095,18.57959 C4.38682095,18.82359 4.58462095,19.02139 4.82863095,19.02139 L19.850001,19.02139 C20.094101,19.02139 20.291901,18.82359 20.291901,18.57959 L20.291901,17.69599 C20.291901,17.45199 20.094101,17.25419 19.850001,17.25419 L4.82863095,17.25419 Z M4.82863095,4 C4.58462095,4 4.38682095,4.1978 4.38682095,4.4418 L4.38682095,5.32542 C4.38682095,5.56942 4.58462095,5.76722 4.82863095,5.76722 L19.850101,5.76722 C20.094101,5.76722 20.291901,5.56942 20.291901,5.32542 L20.291901,4.4418 C20.291901,4.1978 20.094101,4 19.850101,4 L4.82863095,4 Z" id="形状" fill-opacity="0.8" fill="#243045"></path>
            </g>
        </g>
    </g>
</svg>