<?xml version="1.0" encoding="UTF-8"?>
<svg width="20px" height="20px" viewBox="0 0 20 20" version="1.1" xmlns="http://www.w3.org/2000/svg" xmlns:xlink="http://www.w3.org/1999/xlink">
    <title>yonghuyunying@4x</title>
    <defs>
        <rect id="path-1" x="0" y="0" width="20" height="20"></rect>
        <path d="M0,1 C0,0.44772 0.44772,0 1,0 L12,0 C14.2091,0 16,1.79086 16,4 L16,12 C16,14.2091 14.2091,16 12,16 L1,16 C0.44772,16 0,15.5523 0,15 L0,1 Z" id="path-3"></path>
    </defs>
    <g id="通用（21组）" stroke="none" stroke-width="1" fill="none" fill-rule="evenodd">
        <g id="图标" transform="translate(-259.000000, -893.000000)">
            <path d="M173,480 L1267,480 C1274.1797,480 1280,485.820298 1280,493 L1280,2117 C1280,2124.1797 1274.1797,2130 1267,2130 L173,2130 C165.820298,2130 160,2124.1797 160,2117 L160,493 C160,485.820298 165.820298,480 173,480 Z" id="矩形"></path>
            <g id="yonghuyunying" transform="translate(259.000000, 893.000000)">
                <mask id="mask-2" fill="white">
                    <use xlink:href="#path-1"></use>
                </mask>
                <g id="矩形"></g>
                <g id="编组" mask="url(#mask-2)">
                    <g transform="translate(2.000000, 2.000000)">
                        <g id="Clipped" stroke-width="1" fill="none" fill-rule="evenodd">
                            <mask id="mask-4" fill="white">
                                <use xlink:href="#path-3"></use>
                            </mask>
                            <g id="路径"></g>
                            <path d="M0,1 C0,0.44772 0.44772,0 1,0 L12,0 C14.2091,0 16,1.79086 16,4 L16,12 C16,14.2091 14.2091,16 12,16 L1,16 C0.44772,16 0,15.5523 0,15 L0,1 Z" id="路径" stroke="currentColor"  stroke-width="3.6" mask="url(#mask-4)"></path>
                        </g>
                        <circle id="椭圆形" fill="currentColor"  fill-rule="nonzero" cx="8" cy="6" r="2"></circle>
                        <path d="M5,11.4 C5,10.0745 6.07452,9 7.4,9 L8.6,9 C9.9255,9 11,10.0745 11,11.4 C11,11.7314 10.7314,12 10.4,12 L5.6,12 C5.26863,12 5,11.7314 5,11.4 Z" id="路径" fill="currentColor"  fill-rule="nonzero"></path>
                    </g>
                </g>
            </g>
        </g>
    </g>
</svg>