<svg width="20" height="20" viewBox="0 0 20 20" fill="none" xmlns="http://www.w3.org/2000/svg">
<mask id="mask0_68_3228" style="mask-type:alpha" maskUnits="userSpaceOnUse" x="0" y="0" width="20" height="20">
<rect width="20" height="20" />
</mask>
<g mask="url(#mask0_68_3228)">
<mask id="path-2-inside-1_68_3228" fill="white">
<path d="M3 6C3 3.79086 4.79086 2 7 2H13C15.2091 2 17 3.79086 17 6V16.4835C17 17.2014 16.2659 17.6854 15.6061 17.4026L10 15L4.39392 17.4026C3.73405 17.6854 3 17.2014 3 16.4835V6Z"/>
</mask>
<path d="M7 7.9H13V6.1H7V7.9ZM7 10.9H11V9.1H7V10.9ZM10 15L10.7091 13.3455L10 13.0417L9.29095 13.3455L10 15ZM4.39392 17.4026L3.68487 15.7481H3.68487L4.39392 17.4026ZM15.6061 17.4026L16.3151 15.7481L15.6061 17.4026ZM7 3.8H13V0.2H7V3.8ZM15.2 6V16.4835H18.8V6H15.2ZM4.8 16.4835V6H1.2V16.4835H4.8ZM16.3151 15.7481L10.7091 13.3455L9.29095 16.6545L14.897 19.0571L16.3151 15.7481ZM9.29095 13.3455L3.68487 15.7481L5.10298 19.0571L10.7091 16.6545L9.29095 13.3455ZM1.2 16.4835C1.2 18.4936 3.25535 19.8489 5.10298 19.0571L3.68487 15.7481C4.21275 15.5219 4.8 15.9091 4.8 16.4835H1.2ZM15.2 16.4835C15.2 15.9091 15.7872 15.5219 16.3151 15.7481L14.897 19.0571C16.7447 19.8489 18.8 18.4936 18.8 16.4835H15.2ZM13 3.8C14.215 3.8 15.2 4.78497 15.2 6H18.8C18.8 2.79675 16.2033 0.2 13 0.2V3.8ZM7 0.2C3.79675 0.2 1.2 2.79675 1.2 6H4.8C4.8 4.78497 5.78497 3.8 7 3.8V0.2Z" fill="currentColor"  mask="url(#path-2-inside-1_68_3228)"/>
</g>
</svg>
