<svg width="20" height="20" viewBox="0 0 20 20" fill="none" xmlns="http://www.w3.org/2000/svg">
<mask id="mask0_68_3235" style="mask-type:alpha" maskUnits="userSpaceOnUse" x="0" y="0" width="20" height="20">
<rect width="20" height="20" />
</mask>
<g mask="url(#mask0_68_3235)">
<mask id="path-2-inside-1_68_3235" fill="white">
<path d="M7 4C7 2.89543 7.89543 2 9 2H13V6C13 7.10457 12.1046 8 11 8H9C7.89543 8 7 7.10457 7 6V4Z"/>
<path d="M3 14C3 11.7909 4.79086 10 7 10H13C15.2091 10 17 11.7909 17 14V17C17 17.5523 16.5523 18 16 18H4C3.44772 18 3 17.5523 3 17V14Z"/>
</mask>
<path d="M13 2H14.8V0.2H13V2ZM9 3.8H13V0.2H9V3.8ZM11.2 2V6H14.8V2H11.2ZM11 6.2H9V9.8H11V6.2ZM8.8 6V4H5.2V6H8.8ZM9 6.2C8.88954 6.2 8.8 6.11046 8.8 6H5.2C5.2 8.09868 6.90132 9.8 9 9.8V6.2ZM11.2 6C11.2 6.11046 11.1105 6.2 11 6.2V9.8C13.0987 9.8 14.8 8.09868 14.8 6H11.2ZM9 0.2C6.90132 0.2 5.2 1.90132 5.2 4H8.8C8.8 3.88954 8.88954 3.8 9 3.8V0.2ZM7 11.8H13V8.2H7V11.8ZM15.2 14V17H18.8V14H15.2ZM16 16.2H4V19.8H16V16.2ZM4.8 17V14H1.2V17H4.8ZM4 16.2C4.44183 16.2 4.8 16.5582 4.8 17H1.2C1.2 18.5464 2.4536 19.8 4 19.8V16.2ZM15.2 17C15.2 16.5582 15.5582 16.2 16 16.2V19.8C17.5464 19.8 18.8 18.5464 18.8 17H15.2ZM13 11.8C14.215 11.8 15.2 12.785 15.2 14H18.8C18.8 10.7967 16.2033 8.2 13 8.2V11.8ZM7 8.2C3.79675 8.2 1.2 10.7967 1.2 14H4.8C4.8 12.785 5.78497 11.8 7 11.8V8.2Z" fill="currentColor"  mask="url(#path-2-inside-1_68_3235)"/>
</g>
</svg>
