<svg width="20" height="20" viewBox="0 0 20 20" xmlns="http://www.w3.org/2000/svg">
  <mask id="mask0_68_3231" style="mask-type:alpha" maskUnits="userSpaceOnUse" x="0" y="0" width="20" height="20">
    <rect width="20" height="20" />
  </mask>
  <g mask="url(#mask0_68_3231)">
    <path
      d="M10 18.3026C10.4971 18.3026 10.9 17.8997 10.9 17.4026C10.9 16.9055 10.4971 16.5026 10 16.5026V18.3026ZM4.19839 17.4642L4.01657 16.5827L4.01657 16.5827L4.19839 17.4642ZM16.1 11.2417C16.1 11.7388 16.5029 12.1417 17 12.1417C17.4971 12.1417 17.9 11.7388 17.9 11.2417H16.1ZM7 2.9H13V1.1H7V2.9ZM3.9 16.4835V6H2.1V16.4835H3.9ZM10 16.5026H4.59918V18.3026H10V16.5026ZM2.1 16.4835C2.1 17.7171 3.23627 18.5816 4.38022 18.3456L4.01657 16.5827C3.99347 16.5875 3.96399 16.5828 3.93632 16.5607C3.92339 16.5503 3.91457 16.5387 3.90918 16.5278C3.90444 16.5183 3.9 16.5048 3.9 16.4835H2.1ZM13 2.9C14.7121 2.9 16.1 4.28792 16.1 6H17.9C17.9 3.2938 15.7062 1.1 13 1.1V2.9ZM7 1.1C4.2938 1.1 2.1 3.2938 2.1 6H3.9C3.9 4.28792 5.28792 2.9 7 2.9V1.1ZM7 7.9H13V6.1H7V7.9ZM7 10.9H11V9.1H7V10.9ZM16.1 6V11.2417H17.9V6H16.1ZM4.59918 16.5026C4.34521 16.5026 4.08598 16.5684 4.01657 16.5827L4.38021 18.3456C4.41625 18.3382 4.4599 18.3287 4.48496 18.3234C4.51524 18.3169 4.53756 18.3124 4.55681 18.309C4.59605 18.3019 4.60533 18.3026 4.59918 18.3026V16.5026Z"
      fill="currentColor" />
    <path
      d="M13.6363 15.3335C13.2848 14.982 12.715 14.982 12.3635 15.3335C12.012 15.6849 12.012 16.2548 12.3635 16.6062L13.6363 15.3335ZM14.5555 17.5255L13.9191 18.1619L14.5555 18.7983L15.1919 18.1619L14.5555 17.5255ZM18.1618 15.192C18.5132 14.8406 18.5132 14.2707 18.1618 13.9192C17.8103 13.5678 17.2404 13.5678 16.889 13.9192L18.1618 15.192ZM12.3635 16.6062L13.9191 18.1619L15.1919 16.8891L13.6363 15.3335L12.3635 16.6062ZM15.1919 18.1619L18.1618 15.192L16.889 13.9192L13.9191 16.8891L15.1919 18.1619Z"
      fill="currentColor" />
  </g>
</svg>